<mxfile host="app.diagrams.net" modified="2023-10-11T02:42:48.292Z" agent="Mozilla/5.0 (Windows NT 10.0; Win64; x64) AppleWebKit/537.36 (KHTML, like Gecko) Chrome/117.0.0.0 Safari/537.36" etag="74UuqoJVzGT6RmP-yPtn" version="22.0.4" type="device">
  <diagram name="Página-1" id="6qc4yC2GwZMphIlwWl-1">
    <mxGraphModel dx="1932" dy="1794" grid="1" gridSize="10" guides="1" tooltips="1" connect="1" arrows="1" fold="1" page="1" pageScale="1" pageWidth="827" pageHeight="1169" math="0" shadow="0">
      <root>
        <mxCell id="0" />
        <mxCell id="1" parent="0" />
        <mxCell id="Ry80uTBZVBRJhwRsQK09-1" value="Usuário" style="shape=folder;fontStyle=1;spacingTop=10;tabWidth=40;tabHeight=14;tabPosition=left;html=1;whiteSpace=wrap;fillColor=#ffe6cc;strokeColor=#d79b00;" parent="1" vertex="1">
          <mxGeometry x="-100" y="-640" width="170" height="130" as="geometry" />
        </mxCell>
        <mxCell id="Ry80uTBZVBRJhwRsQK09-2" value="Despesas" style="shape=folder;fontStyle=1;spacingTop=10;tabWidth=40;tabHeight=14;tabPosition=left;html=1;whiteSpace=wrap;fillColor=#ffe6cc;strokeColor=#d79b00;" parent="1" vertex="1">
          <mxGeometry x="160" y="-550" width="170" height="120" as="geometry" />
        </mxCell>
        <mxCell id="Ry80uTBZVBRJhwRsQK09-3" value="Receitas" style="shape=folder;fontStyle=1;spacingTop=10;tabWidth=40;tabHeight=14;tabPosition=left;html=1;whiteSpace=wrap;fillColor=#ffe6cc;strokeColor=#d79b00;" parent="1" vertex="1">
          <mxGeometry x="-290" y="-560" width="110" height="90" as="geometry" />
        </mxCell>
        <mxCell id="Ry80uTBZVBRJhwRsQK09-4" value="Categoria" style="shape=folder;fontStyle=1;spacingTop=10;tabWidth=40;tabHeight=14;tabPosition=left;html=1;whiteSpace=wrap;fillColor=#ffe6cc;strokeColor=#d79b00;" parent="1" vertex="1">
          <mxGeometry x="380" y="-640" width="110" height="90" as="geometry" />
        </mxCell>
        <mxCell id="Ry80uTBZVBRJhwRsQK09-5" value="&lt;p style=&quot;line-height: 120%;&quot;&gt;&lt;span data-darkreader-inline-color=&quot;&quot; data-darkreader-inline-bgcolor=&quot;&quot; style=&quot;background-color: initial; color: rgb(0, 0, 0); --darkreader-inline-bgcolor: initial; --darkreader-inline-color: #ffffff;&quot;&gt;Cartões&lt;/span&gt;&lt;br&gt;&lt;/p&gt;&lt;p style=&quot;line-height: 120%;&quot;&gt;&lt;span data-darkreader-inline-color=&quot;&quot; data-darkreader-inline-bgcolor=&quot;&quot; style=&quot;background-color: initial; color: rgb(0, 0, 0); --darkreader-inline-bgcolor: initial; --darkreader-inline-color: #ffffff;&quot;&gt;&lt;br&gt;&lt;/span&gt;&lt;/p&gt;&lt;p style=&quot;line-height: 120%;&quot;&gt;&lt;span data-darkreader-inline-color=&quot;&quot; data-darkreader-inline-bgcolor=&quot;&quot; style=&quot;background-color: initial; color: rgb(0, 0, 0); --darkreader-inline-bgcolor: initial; --darkreader-inline-color: #ffffff;&quot;&gt;&lt;br&gt;&lt;/span&gt;&lt;/p&gt;&lt;p style=&quot;line-height: 120%;&quot;&gt;&lt;span data-darkreader-inline-color=&quot;&quot; data-darkreader-inline-bgcolor=&quot;&quot; style=&quot;background-color: initial; color: rgb(0, 0, 0); --darkreader-inline-bgcolor: initial; --darkreader-inline-color: #ffffff;&quot;&gt;&lt;br&gt;&lt;/span&gt;&lt;/p&gt;&lt;p style=&quot;line-height: 120%;&quot;&gt;&lt;span data-darkreader-inline-color=&quot;&quot; data-darkreader-inline-bgcolor=&quot;&quot; style=&quot;background-color: initial; color: rgb(0, 0, 0); --darkreader-inline-bgcolor: initial; --darkreader-inline-color: #ffffff;&quot;&gt;&lt;br&gt;&lt;/span&gt;&lt;/p&gt;" style="shape=folder;fontStyle=1;spacingTop=10;tabWidth=40;tabHeight=14;tabPosition=left;html=1;whiteSpace=wrap;align=center;fillColor=#ffe6cc;strokeColor=#d79b00;" parent="1" vertex="1">
          <mxGeometry x="380" y="-450" width="290" height="180" as="geometry" />
        </mxCell>
        <mxCell id="Ry80uTBZVBRJhwRsQK09-6" value="Controle financeiro" style="shape=folder;fontStyle=1;spacingTop=10;tabWidth=40;tabHeight=14;tabPosition=left;html=1;whiteSpace=wrap;fillColor=#ffe6cc;strokeColor=#d79b00;" parent="1" vertex="1">
          <mxGeometry x="-80" y="-440" width="150" height="120" as="geometry" />
        </mxCell>
        <mxCell id="Ry80uTBZVBRJhwRsQK09-7" value="Use" style="endArrow=open;endSize=12;dashed=1;html=1;rounded=0;entryX=0.526;entryY=0.116;entryDx=0;entryDy=0;entryPerimeter=0;" parent="1" target="Ry80uTBZVBRJhwRsQK09-2" edge="1">
          <mxGeometry width="160" relative="1" as="geometry">
            <mxPoint x="70" y="-590" as="sourcePoint" />
            <mxPoint x="230" y="-590" as="targetPoint" />
          </mxGeometry>
        </mxCell>
        <mxCell id="Ry80uTBZVBRJhwRsQK09-8" value="Use" style="endArrow=open;endSize=12;dashed=1;html=1;rounded=0;entryX=0.447;entryY=0.092;entryDx=0;entryDy=0;entryPerimeter=0;" parent="1" target="Ry80uTBZVBRJhwRsQK09-3" edge="1">
          <mxGeometry width="160" relative="1" as="geometry">
            <mxPoint x="-100" y="-590" as="sourcePoint" />
            <mxPoint x="-260" y="-590" as="targetPoint" />
          </mxGeometry>
        </mxCell>
        <mxCell id="Ry80uTBZVBRJhwRsQK09-9" value="Use" style="endArrow=open;endSize=12;dashed=1;html=1;rounded=0;entryX=0.5;entryY=1;entryDx=0;entryDy=0;entryPerimeter=0;" parent="1" target="Ry80uTBZVBRJhwRsQK09-1" edge="1">
          <mxGeometry width="160" relative="1" as="geometry">
            <mxPoint x="-15" y="-421" as="sourcePoint" />
            <mxPoint x="90" y="-440" as="targetPoint" />
          </mxGeometry>
        </mxCell>
        <mxCell id="Ry80uTBZVBRJhwRsQK09-10" value="Use" style="endArrow=open;endSize=12;dashed=1;html=1;rounded=0;exitX=0;exitY=0;exitDx=0;exitDy=52;exitPerimeter=0;entryX=0.75;entryY=1;entryDx=0;entryDy=0;entryPerimeter=0;" parent="1" source="Ry80uTBZVBRJhwRsQK09-6" target="Ry80uTBZVBRJhwRsQK09-3" edge="1">
          <mxGeometry width="160" relative="1" as="geometry">
            <mxPoint x="-70" y="-440" as="sourcePoint" />
            <mxPoint x="90" y="-440" as="targetPoint" />
          </mxGeometry>
        </mxCell>
        <mxCell id="Ry80uTBZVBRJhwRsQK09-11" value="Use" style="endArrow=open;endSize=12;dashed=1;html=1;rounded=0;exitX=0;exitY=0;exitDx=150;exitDy=67;exitPerimeter=0;entryX=-0.004;entryY=0.437;entryDx=0;entryDy=0;entryPerimeter=0;" parent="1" source="Ry80uTBZVBRJhwRsQK09-6" target="Ry80uTBZVBRJhwRsQK09-5" edge="1">
          <mxGeometry width="160" relative="1" as="geometry">
            <mxPoint x="240" y="-380" as="sourcePoint" />
            <mxPoint x="400" y="-380" as="targetPoint" />
          </mxGeometry>
        </mxCell>
        <mxCell id="Ry80uTBZVBRJhwRsQK09-12" value="Use" style="endArrow=open;endSize=12;dashed=1;html=1;rounded=0;exitX=0.824;exitY=0.083;exitDx=0;exitDy=0;exitPerimeter=0;entryX=0;entryY=0;entryDx=0;entryDy=52;entryPerimeter=0;" parent="1" source="Ry80uTBZVBRJhwRsQK09-2" target="Ry80uTBZVBRJhwRsQK09-4" edge="1">
          <mxGeometry width="160" relative="1" as="geometry">
            <mxPoint x="270" y="-580" as="sourcePoint" />
            <mxPoint x="430" y="-580" as="targetPoint" />
          </mxGeometry>
        </mxCell>
        <mxCell id="cFEvJYyIU5Hy6gHCV9WS-1" value="Crédito" style="shape=folder;fontStyle=1;spacingTop=10;tabWidth=40;tabHeight=14;tabPosition=left;html=1;whiteSpace=wrap;" vertex="1" parent="1">
          <mxGeometry x="400" y="-387.5" width="120" height="80" as="geometry" />
        </mxCell>
        <mxCell id="cFEvJYyIU5Hy6gHCV9WS-2" value="Debito" style="shape=folder;fontStyle=1;spacingTop=10;tabWidth=40;tabHeight=14;tabPosition=left;html=1;whiteSpace=wrap;" vertex="1" parent="1">
          <mxGeometry x="540" y="-385" width="120" height="75" as="geometry" />
        </mxCell>
      </root>
    </mxGraphModel>
  </diagram>
</mxfile>
